<?xml version="1.0" encoding="UTF-8" standalone="no"?>
<svg
   xmlns:dc="http://purl.org/dc/elements/1.1/"
   xmlns:cc="http://creativecommons.org/ns#"
   xmlns:rdf="http://www.w3.org/1999/02/22-rdf-syntax-ns#"
   xmlns:svg="http://www.w3.org/2000/svg"
   xmlns="http://www.w3.org/2000/svg"
   xmlns:sodipodi="http://sodipodi.sourceforge.net/DTD/sodipodi-0.dtd"
   xmlns:inkscape="http://www.inkscape.org/namespaces/inkscape"
   sodipodi:docname="icons.svg"
   inkscape:version="1.0 (4035a4fb49, 2020-05-01)"
   id="svg8"
   version="1.1"
   viewBox="0 0 210 297"
   height="297mm"
   width="210mm">
  <defs
     id="defs2" />
  <sodipodi:namedview
     inkscape:snap-text-baseline="true"
     inkscape:window-maximized="1"
     inkscape:window-y="-8"
     inkscape:window-x="-8"
     inkscape:window-height="837"
     inkscape:window-width="1600"
     showgrid="false"
     inkscape:document-rotation="0"
     inkscape:current-layer="layer1"
     inkscape:document-units="mm"
     inkscape:cy="221.60352"
     inkscape:cx="384.70176"
     inkscape:zoom="2.8"
     inkscape:pageshadow="2"
     inkscape:pageopacity="0.0"
     borderopacity="1.0"
     bordercolor="#666666"
     pagecolor="#ffffff"
     id="base" />
  <metadata
     id="metadata5">
    <rdf:RDF>
      <cc:Work
         rdf:about="">
        <dc:format>image/svg+xml</dc:format>
        <dc:type
           rdf:resource="http://purl.org/dc/dcmitype/StillImage" />
        <dc:title></dc:title>
      </cc:Work>
    </rdf:RDF>
  </metadata>
  <g
     id="layer1"
     inkscape:groupmode="layer"
     inkscape:label="Ebene 1">
    <path
       id="path24"
       d="m 83.014704,83.291152 c -3.225125,-1.161002 -6.276452,-3.991551 -7.955689,-7.380054 -2.715671,-5.479908 -0.04276,-9.204039 5.437836,-7.576476 0.751516,0.223176 1.482749,0.623189 1.624963,0.888918 0.142213,0.265728 0.844479,0.735193 1.560591,1.043256 0.72897,0.313595 1.636102,0.979323 2.06108,1.51259 0.417483,0.523862 1.073971,1.2771 1.458864,1.673863 0.949233,0.978505 1.80973,2.431229 1.821162,3.074556 0.0052,0.291042 0.184211,0.760283 0.397864,1.042758 0.543594,0.718695 0.500638,3.228958 -0.07497,4.381201 -0.894286,1.790162 -3.530439,2.347806 -6.331701,1.339388 z m 4.687126,-0.417825 c 1.05867,-0.54746 1.578839,-1.673209 1.578839,-3.416925 0,-1.347279 -0.05342,-1.476713 -0.673678,-1.632389 -1.237866,-0.310684 -3.490865,0.04818 -4.903411,0.781039 -1.540969,0.799483 -2.360411,0.729362 -2.360411,-0.201986 0,-1.160175 1.756558,-2.147653 4.634981,-2.60563 1.088781,-0.173232 1.979602,-0.384432 1.979602,-0.469334 0,-1.56287 -5.094794,-1.715882 -7.008591,-0.21049 -0.760056,0.597861 -1.403404,0.55868 -1.825238,-0.111161 -0.658416,-1.045514 1.283121,-2.373979 4.184861,-2.86342 1.846956,-0.31153 1.846956,-0.31153 1.234276,-0.807649 -1.023776,-0.829003 -3.535236,-0.682951 -5.547548,0.322613 -1.659758,0.829391 -2.297215,0.853998 -2.586609,0.09985 -0.237725,-0.619502 0.834982,-1.607634 2.48984,-2.293534 1.28758,-0.533672 1.380353,-0.621286 0.823284,-0.777498 -3.177084,-0.890911 -5.534485,0.969697 -5.166395,4.077641 0.449106,3.791995 4.69789,8.653678 8.862977,10.141484 1.31517,0.46979 3.341519,0.454363 4.283221,-0.03261 z m -4.787167,-4.474152 c 0.493589,-0.594738 2.620708,-1.209911 4.183581,-1.209911 1.219278,0 1.413629,-0.06753 1.332539,-0.463021 -0.08041,-0.392155 -0.356717,-0.452761 -1.805338,-0.395986 -1.929664,0.07563 -4.558575,1.183578 -4.706364,1.983486 -0.103713,0.561347 0.553782,0.617768 0.995582,0.08543 z m -2.141504,-3.825718 c 0.927349,-0.659085 2.524736,-1.085063 4.075739,-1.086884 1.294966,-0.0015 1.543956,-0.227507 0.868399,-0.788169 -0.925979,-0.768494 -5.960906,0.795098 -6.177221,1.918331 -0.114612,0.595134 0.358169,0.57854 1.233083,-0.04328 z m -2.256047,-3.324945 c 0.701241,-0.355779 1.805557,-0.726435 2.454034,-0.82368 0.964014,-0.144563 1.123675,-0.243531 0.875431,-0.542647 -0.393797,-0.474497 -1.186418,-0.462878 -2.639088,0.03868 -1.458567,0.503597 -2.498617,1.277426 -2.252382,1.675841 0.231181,0.37406 0.06575,0.410938 1.562005,-0.348197 z"
       style="fill:#000000;stroke-width:1" />
    <path
       inkscape:export-ydpi="80.290001"
       inkscape:export-xdpi="80.290001"
       sodipodi:nodetypes="ssssssssssssssssssssssssssssssssssssssssssssssssssssssssssssssssssssssssssssssssssssss"
       id="path40"
       d="m 59.028959,95.694551 c -0.291042,-0.06155 -7.963222,-0.06884 -8.290644,-0.138707 -0.327421,-0.06987 -0.444973,-0.225633 -0.444973,-0.38698 0,-0.259426 7.814944,-0.356848 9.465536,-0.02262 0.163343,0.03307 0.342554,-0.148223 0.398247,-0.402885 0.06291,-0.287682 -0.05638,-0.46302 -0.315016,-0.46302 -0.520774,0 -0.532722,-0.249933 -0.03023,-0.63229 1.230688,-0.936452 1.188383,-10.533919 -0.05057,-11.472398 -0.401483,-0.304114 -0.395322,-0.360926 0.07656,-0.705971 0.282246,-0.206384 0.423174,-0.465243 0.313174,-0.575243 -0.287707,-0.287707 -9.740171,-0.29095 -9.917885,-0.0034 -0.08172,0.132228 0.07096,0.400946 0.339282,0.597151 0.454166,0.332095 0.457125,0.379583 0.04283,0.687466 -0.719357,0.534593 -1.136131,5.027524 -0.767442,8.273224 0.314342,2.767256 0.587677,5.573544 0.111335,4.320668 -0.533189,-1.402392 -0.948421,-8.09654 -0.488673,-10.726918 0.233839,-1.337878 0.353476,-2.619316 0.26586,-2.847641 -0.369318,-0.962426 0.228345,-1.079995 5.381624,-1.058635 2.744337,0.01138 5.145156,0.116758 5.335155,0.234183 0.189998,0.117425 0.292982,0.487972 0.228854,0.823436 -0.06413,0.335465 0.04124,1.363305 0.234154,2.284091 0.425115,2.029105 0.465722,6.237449 0.07899,8.186479 -0.155532,0.783847 -0.281697,1.897784 -0.280366,2.475416 0.0025,1.082273 -0.335676,1.75096 -0.858307,1.697193 -0.164083,-0.01688 -0.536458,-0.08105 -0.827499,-0.142593 z m -5.402677,-4.166697 c -0.444699,-0.535829 -0.815397,-1.978563 -0.550448,-2.14231 0.124408,-0.07689 0.124408,-0.492255 0,-0.926042 -0.124409,-0.433787 -0.124409,-0.849153 0,-0.926041 0.124408,-0.07689 0.124408,-0.492255 0,-0.926042 -0.23999,-0.836796 -0.02903,-1.154393 0.605159,-0.911034 0.278878,0.107015 0.436213,-0.106226 0.558218,-0.756568 0.09344,-0.498071 0.397102,-1.111208 0.674807,-1.362528 0.483765,-0.437801 0.522343,-0.423247 0.920867,0.347412 0.228772,0.442396 0.415949,1.050662 0.415949,1.351703 0,0.448376 0.116926,0.518 0.646652,0.385047 0.646653,-0.162299 0.646653,-0.162299 0.576683,2.501309 -0.05637,2.14603 -0.16429,2.76783 -0.555368,3.199967 -0.47741,0.527532 -1.197134,0.729189 -1.197134,0.33542 0,-0.110516 0.238125,-0.34965 0.529167,-0.531409 0.612011,-0.382207 0.709029,-1.119736 0.147294,-1.119736 -0.210029,0 -0.572743,0.267891 -0.80603,0.595313 -0.39053,0.548113 -0.445061,0.558859 -0.687793,0.135536 -0.144999,-0.252877 -0.49666,-0.584488 -0.781469,-0.736913 -0.713824,-0.382027 -0.706063,0.347004 0.01133,1.064398 0.291042,0.291041 0.529167,0.588698 0.529167,0.661458 0,0.284145 -0.745479,0.112384 -1.037051,-0.23894 z m 1.176506,-2.286192 c 0.213422,-0.345323 -0.344976,-1.046743 -0.83331,-1.046743 -0.448879,0 -0.47582,0.576574 -0.04698,1.005417 0.390412,0.390412 0.656812,0.402918 0.880288,0.04133 z m 1.920695,-0.465931 c 0.353869,-0.532956 0.342054,-0.580812 -0.143397,-0.580812 -0.63219,0 -1.241209,0.653018 -0.989242,1.06071 0.244776,0.396055 0.67091,0.215503 1.132639,-0.479898 z m -1.795566,-1.453937 c 0,-0.442465 -0.536494,-0.978958 -0.978958,-0.978958 -0.431557,0 -0.44695,0.584925 -0.02646,1.005416 0.420491,0.420491 1.005417,0.405099 1.005417,-0.02646 z m 1.803941,-0.3175 c 0.236517,-0.519098 0.228069,-0.661458 -0.03925,-0.661458 -0.563399,0 -1.329785,0.69176 -1.128037,1.018195 0.313402,0.507095 0.848165,0.343666 1.167289,-0.356737 z m -1.142483,-1.984375 c 0,-0.339549 -0.138724,-0.663603 -0.308277,-0.72012 -0.361909,-0.120636 -0.730922,0.852141 -0.478304,1.260885 0.286691,0.463877 0.786581,0.120208 0.786581,-0.540765 z m -3.836458,-3.175 c 0,-0.145521 0.416719,-0.264583 0.926042,-0.264583 0.509323,0 0.926041,0.119062 0.926041,0.264583 0,0.145521 -0.416718,0.264583 -0.926041,0.264583 -0.509323,0 -0.926042,-0.119062 -0.926042,-0.264583 z m 2.645833,0 c 0,-0.145521 0.357188,-0.264583 0.79375,-0.264583 0.436563,0 0.79375,0.119062 0.79375,0.264583 0,0.145521 -0.357187,0.264583 -0.79375,0.264583 -0.436562,0 -0.79375,-0.119062 -0.79375,-0.264583 z m 2.38125,0 c 0,-0.145521 0.416719,-0.264583 0.926042,-0.264583 0.509323,0 0.926042,0.119062 0.926042,0.264583 0,0.145521 -0.416719,0.264583 -0.926042,0.264583 -0.509323,0 -0.926042,-0.119062 -0.926042,-0.264583 z"
       style="fill:#000000;stroke-width:1" />
    <path
       inkscape:export-ydpi="80.290001"
       inkscape:export-xdpi="80.290001"
       id="path108"
       d="m 120.30039,73.831959 c -0.91426,-0.06621 -1.12448,-0.17874 -1.12448,-0.601933 0,-0.312828 -0.26598,-0.621627 -0.66663,-0.773955 -0.66663,-0.253453 -0.66663,-0.253453 -0.59531,-6.012722 l 0.0713,-5.75927 7.72763,-0.07012 c 9.31644,-0.08454 8.31592,-0.84067 8.21914,6.211444 -0.0718,5.229079 -0.0718,5.229079 -0.79937,5.577588 -0.46712,0.223744 -0.72753,0.55646 -0.7274,0.929384 3.4e-4,0.979608 -2.47966,0.8035 -2.59814,-0.184497 -0.11591,-0.966655 -7.76799,-0.993999 -7.94161,-0.02838 -0.13223,0.735372 -0.28548,0.805132 -1.56514,0.712463 z m 0.7276,-0.995448 c 0,-0.275786 -0.193,-0.386878 -0.57459,-0.33073 -0.84706,0.124642 -0.93778,0.746007 -0.10891,0.746007 0.44463,0 0.6835,-0.145132 0.6835,-0.415277 z m 10.78177,0.08455 c -0.0606,-0.181901 -0.32852,-0.330729 -0.59531,-0.330729 -0.26679,0 -0.53468,0.148828 -0.59531,0.330729 -0.0698,0.209462 0.14846,0.33073 0.59531,0.33073 0.44685,0 0.66513,-0.121268 0.59531,-0.33073 z m 1.25677,-6.416146 v -5.291667 h -7.27604 -7.27604 l -0.0722,5.018937 c -0.0397,2.760414 -0.0129,5.173349 0.0595,5.362077 0.10436,0.271943 1.62904,0.328531 7.34824,0.272731 l 7.21656,-0.07041 z m -13.89062,0 v -4.101042 h 5.02708 5.02709 v 4.101042 4.101042 h -5.02709 -5.02708 z m 9.26042,0 v -3.307292 h -4.36563 -4.36562 v 3.307292 3.307292 h 4.36562 4.36563 z m -2.38125,2.427371 c 0,-0.425756 1.10213,-1.501329 1.5384,-1.501329 0.50752,0 0.36419,0.381772 -0.4284,1.141124 -0.82488,0.790283 -1.11,0.882808 -1.11,0.360205 z m -2.11667,-0.11991 c 0,-0.380813 3.37366,-3.554226 3.52249,-3.313411 0.0809,0.130922 -0.57538,0.976367 -1.45844,1.878766 -1.50302,1.535953 -2.06405,1.925901 -2.06405,1.434645 z m 6.40292,-0.376002 c -0.83012,-0.830113 -0.11315,-2.328334 1.11421,-2.328334 0.71733,0 1.33563,1.242652 0.99274,1.995214 -0.32655,0.716693 -1.53269,0.907389 -2.10695,0.33312 z m 1.53458,-0.897044 c 0,-0.532044 -0.75783,-0.783061 -1.14226,-0.378351 -0.24703,0.260061 -0.18206,0.289824 0.30848,0.141304 0.55168,-0.16703 0.60047,-0.122101 0.43468,0.400271 -0.12691,0.399861 -0.0929,0.530406 0.10617,0.40738 0.16111,-0.09957 0.29293,-0.356344 0.29293,-0.570604 z m -1.43631,-2.640814 c -0.79445,-0.794445 -0.13607,-2.494643 0.96601,-2.494643 0.35876,0 1.26405,1.042197 1.26405,1.455209 0,1.072695 -1.4984,1.771099 -2.23006,1.039434 z m 1.33181,-0.687522 c 0.12624,-0.20426 0.0503,-0.255457 -0.22311,-0.150522 -0.55617,0.213426 -0.79587,-0.06867 -0.43145,-0.507775 0.20125,-0.242485 0.20547,-0.355074 0.0133,-0.355074 -0.40144,0 -0.64943,0.488409 -0.47664,0.938712 0.17707,0.461433 0.85102,0.506444 1.11788,0.07466 z"
       style="fill:#000000;stroke-width:1" />
  </g>
</svg>
